<?xml version="1.0" encoding="utf-8"?>
<!-- Generator: Adobe Illustrator 21.0.0, SVG Export Plug-In . SVG Version: 6.00 Build 0)  -->
<svg version="1.1" id="Layer_1" xmlns="http://www.w3.org/2000/svg" xmlns:xlink="http://www.w3.org/1999/xlink" x="0px" y="0px"
	 viewBox="0 0 200 200" style="enable-background:new 0 0 200 200;" xml:space="preserve">
<style type="text/css">
	.st0{fill:#009699;}
</style>
<g>
	<path class="st0" d="M95.6,102.3c1.1-0.3,2.2-0.2,3.4,0.1c1.2,0.4,2.5,0.9,3.8,1.6c1.1-0.1,2.5-0.1,4.1-0.1c0.5,0,1.1,0.1,1.8,0.2
		c0.7,0.2,1.4,0.4,2.2,0.7c1.1,0.5,2.1,0.9,3,1.2c0.9,0.9,0.9,2.4,0,4.3s-2.8,4.2-5.6,7.1c-4.3,4.3-8.5,8-12.6,10.9
		c-4.1,3-8,5.3-11.8,6.9c-0.4,0.2-0.9,0.4-1.5,0.7c-0.5,0.3-1.2,0.5-1.8,0.8c-0.8,0.6-1.9,1.3-3,2c-1.2,0.7-2.6,1.6-4.1,2.6
		c-0.5,0.4-1.1,0.8-1.7,1.4c-0.6,0.6-1.4,1.2-2.4,1.9c-0.6,0.4-1.7,1.1-3.4,2s-3.9,1.9-6.7,3l-1.1,1.6c-1.4,0.8-3.3,1.8-5.5,2.9
		c-2.2,1.1-4.7,2.3-7.6,3.7c-1.3,0.8-2.9,1.7-4.9,2.7s-4.2,2.1-6.9,3.4c-1.2,0.9-2.2,1.7-3.1,2.4c-0.4,0.2-1.5,0.8-3.4,1.8
		s-4.5,2.2-8,3.7c-1,0.4-2.1,0.5-3.4,0.4s-2.9-0.6-4.7-1.4c-1.5-0.6-2.9-1.4-4.1-2.1c-1.2-0.7-2.3-1.6-3.2-2.5
		c-1.3-1.3-2.2-2.8-2.6-4.3s-0.3-3.1,0.4-4.6c2.3-5.4,4.2-9.7,5.8-12.7c1.6-3.1,2.7-4.9,3.5-5.6c0.2-0.6,0.5-1.5,1.1-2.8
		c0.5-1.3,1.4-3,2.6-5c1-1.9,2-3.4,2.8-4.6s1.5-2.1,2.1-2.6c2.6-2.6,4.8-4.4,6.5-5.3c1.7-0.9,3-1,3.8-0.2c1.4,1.4,2.4,2.8,3.1,4.3
		c0.6,1.4,0.9,2.9,0.9,4.3c-0.1,0.9-0.4,2.1-0.9,3.5c-0.5,1.5-1.3,3.3-2.3,5.5c-1,2.6-1.9,4.7-2.6,6.2s-1.3,2.5-1.7,2.8
		c-0.7,0.7-1.9,0.9-3.5,0.5s-2.6-0.4-3.1,0.1c-0.3,1.1-0.7,2.1-1.2,3.1s-0.9,1.9-1.2,2.8c-0.6,1.6-1,2.8-1,3.8s0.2,1.7,0.7,2.2
		c0.6,0.7,2.3,0.5,4.9-0.5s6.3-2.8,10.9-5.5c3.5-1.9,6.6-3.7,9.4-5.4c2.8-1.6,5.3-3.2,7.4-4.8c1-0.5,2.3-1.1,3.7-1.9
		c1.4-0.7,3-1.7,4.9-2.7c0.4-0.2,0.9-0.5,1.4-1c0.5-0.4,1.1-0.9,1.9-1.5c2.3-1.7,4.7-3.4,7.2-5.1c2.5-1.7,4.9-3.4,7.3-5.1
		c2.8-2,5.4-4,7.6-5.9s4.2-3.7,6-5.5c1.5-1.5,1.3-3.3-0.4-5.6c-1.7-2.3-2.2-3.7-1.6-4.3c0.6-0.6,1.6-0.9,3-0.9
		C91.6,101.7,93.4,101.9,95.6,102.3z"/>
</g>
<g>
	<path class="st0" d="M183.3,111c8.5,3.2,13,4.9,13.3,5.2c0.3,2.1,0.8,4.2,1.4,6.2c0.6,2.1,1.2,4.3,1.7,6.6c0.4,2,0.4,4.1,0,6.2
		c-0.4,2.2-1.2,4.4-2.2,6.6c-1.5,3.4-2.8,6.6-4.1,9.6c-1.2,3.1-2.3,5.9-3.2,8.5c-1,2.9-2.5,5.6-4.4,8.2c-2,2.5-3.8,5-5.6,7.4
		c-1.1,1.9-2.3,3.6-3.6,5.1c-1.4,1.5-2.6,2.9-3.8,4.1c-1,1-1.9,1.8-2.7,2.4c-0.8,0.6-1.5,1-2.3,1.2c-1,0.2-2,0.4-3,0.5
		c-1,0.2-1.9,0.4-2.8,0.6c-1.8,0.5-3.2,0.8-4.1,1.1c-1.3,0.3-3.2-0.4-5.8-2.3c-2.6-1.8-6-4.9-10.2-9.1c-3-3-6.8-8.5-11.6-16.6
		s-8.2-13.3-10.4-15.4c-0.5-0.5-1.2-1.1-2.2-1.8s-1.7-1.3-2.3-1.9c-1.9-1.9-5.5-6.8-10.9-14.8s-9.4-13.3-12-15.9
		c-1.3-1.3-2.7-1.7-4.2-1.3c-1.5,0.4-2.9,0-4-1.1c-1.6-1.6-3.3-3.6-5-5.8c-1.8-2.3-3.5-5-5.2-8c-1.4-2.5-2.9-5-4.4-7.4
		c-1.5-2.5-3-4.9-4.4-7.2c-1.7-2.7-3.5-5.4-5.3-8.2c-1.8-2.8-3.6-5.4-5.4-7.9c-1.1-1.9-2.3-4.3-3.5-7.3c-1.3-3-2.7-6.5-4.2-10.5
		c-0.7-1.9-1.5-3.7-2.2-5.4c-0.7-1.6-1.5-3.4-2.3-5.3c-0.5-1.6-0.7-3.3-0.5-5.2c0.2-1.8,0.7-3.8,1.5-6c0.7-1.7,1.5-3.1,2.2-4.3
		c0.7-1.2,1.2-1.9,1.6-2.3c1.8-1.8,3.8-2.5,5.9-2.1c2.1,0.4,4.4,1.9,6.9,4.4c0.8,0.8,1.7,1.8,2.6,2.9c0.9,1.1,1.9,2.6,2.8,4.3
		c1.1,1.7,2.1,3.1,2.9,4.4c0.8,1.2,1.4,2.2,1.9,3c1.6,1.7,2.9,3.2,4.1,4.7s2.3,2.9,3.2,4.2c0.4,1.2,0.8,2.7,1.3,4.5
		c2.7,3.6,4.9,6.6,6.7,9.1c1.8,2.4,3.2,4.1,4,4.9c2.8,2.8,5.6,7.1,8.5,12.8c2.8,5.7,5.3,9.7,7.5,11.9c0.9,0.9,2,2.3,3.2,4.2
		c1.2,1.9,2.5,4.2,3.9,6.9c2.1,3.6,3.7,6.3,4.8,8.3c1.1,2,1.8,3.2,2,3.7c0.9,1.1,1.9,2.5,3.1,4s2.5,3.3,4,5.5
		c5.8,8.9,10.7,16.1,14.7,21.7s7.3,9.6,9.7,12c2.2,2.2,4.2,3.7,5.9,4.4s3,0.6,3.9-0.3c4.2-4.2,8-9,11.4-14.3s6.5-11.2,9.4-17.7
		c0.5-0.6,0.9-1.3,1.2-2s0.6-1.4,0.9-2.2c-0.1-1.8-0.4-3.2-0.8-4.4c0.3-1.4,0.6-2.7,0.7-4S183.4,112.1,183.3,111z"/>
</g>
</svg>
