<?xml version="1.0" encoding="utf-8"?>
<!-- Generator: Adobe Illustrator 21.0.0, SVG Export Plug-In . SVG Version: 6.00 Build 0)  -->
<svg version="1.1" id="Layer_1" xmlns="http://www.w3.org/2000/svg" xmlns:xlink="http://www.w3.org/1999/xlink" x="0px" y="0px"
	 viewBox="0 0 200 200" style="enable-background:new 0 0 200 200;" xml:space="preserve">
<style type="text/css">
	.st0{fill:#00738F;}
	.st1{fill:#FFFFFF;}
</style>
<circle class="st0" cx="100" cy="100" r="100"/>
<g>
	<path class="st1" d="M123.2,50.5c-13.5,1.7-14.5,2.3-17.3,17.3l-14.1,75.4c-4.5,24.3-12,37.8-26.3,46.1c-5.8,3.4-11.7,5.3-14.7,5.5
		l-1.9-5.5c8.3-2.4,16.4-8.1,20.9-20.3c3-8.1,5.3-18,7.5-29.5l13.3-71.6c2.6-15.2,1.3-15.6-13.7-17.3l1.1-4.9h46.4L123.2,50.5z"/>
	<path class="st1" d="M126.6,130.4c2.1,14.3,9.8,33.7,30.5,33.7c13.3,0,22.6-9.4,22.6-24.3c0-10.7-6.6-17.9-17.5-26.5l-5.3-4.1
		c-8.6-7-21.1-17.3-21.1-32.9c0-19.6,15.6-33.7,38.2-33.7c6,0,12.6,1.3,17.9,3.2c3.6,1.3,6.8,2.4,8.3,3c-0.8,7.9-0.4,17.9-0.6,26.3
		l-5.5,0.6c-1.5-14.1-6.4-26.9-22.6-26.9c-13.2,0-21.1,10.5-21.1,22c0,10.9,7.7,17.7,17.5,25.2l5.6,4.1c13,9.8,21.8,19.6,21.8,34.4
		c0,22-19.4,35.9-41,35.9c-15,0-28.2-7-32.3-11.7c-0.2-4.3-0.2-14.5-0.6-27.8L126.6,130.4z"/>
</g>
<g>
</g>
<g>
</g>
<g>
</g>
<g>
</g>
<g>
</g>
</svg>
