<?xml version="1.0" encoding="utf-8"?>
<!-- Generator: Adobe Illustrator 21.0.0, SVG Export Plug-In . SVG Version: 6.00 Build 0)  -->
<svg version="1.1" id="Layer_1" xmlns="http://www.w3.org/2000/svg" xmlns:xlink="http://www.w3.org/1999/xlink" x="0px" y="0px"
	 viewBox="0 0 100 100" style="enable-background:new 0 0 100 100;" xml:space="preserve">
<style type="text/css">
	.st0{fill:#FFFFFF;}
</style>
<rect x="21.8" y="25.1" class="st0" width="49.8" height="49.8"/>
<path d="M55.8,36.8H4.4c-1.1,0-2-0.9-2-2l0,0c0-1.1,0.9-2,2-2h51.4c1.1,0,2,0.9,2,2l0,0C57.8,35.9,56.9,36.8,55.8,36.8z"/>
<path d="M68.4,51.3H17c-1.1,0-2-0.9-2-2l0,0c0-1.1,0.9-2,2-2h51.4c1.1,0,2,0.9,2,2l0,0C70.4,50.4,69.5,51.3,68.4,51.3z"/>
<path d="M79.2,66.6H27.8c-1.1,0-2-0.9-2-2l0,0c0-1.1,0.9-2,2-2h51.4c1.1,0,2,0.9,2,2l0,0C81.2,65.7,80.3,66.6,79.2,66.6z"/>
</svg>
